#N canvas 468 155 749 541 10;
#X obj 85 37 inlet~;
#X obj 100 78 delread~ \$0-allpassNL;
#X obj 74 172 +~;
#X obj 82 303 *~;
#X obj 180 247 delread~ \$0-allpassNL2;
#X obj 79 395 *~ -1;
#X obj 132 341 +~;
#X obj 282 484 outlet~;
#X obj 406 266 *~;
#X obj 423 193 expr~ 1 - $v1;
#X obj 467 146 expr~ $v1 >= 0;
#X obj 575 245 *~;
#X obj 415 317 +~;
#X text 447 479 adapted from: http://peabody.sapp.org/class/st1/lab/prog6/
;
#X obj 407 112 sig~;
#X obj 594 118 sig~;
#X obj 566 87 inlet a2;
#X obj 408 59 inlet a1;
#X obj 55 433 delwrite~ \$0-allpassNL 1;
#X obj 153 199 delwrite~ \$0-allpassNL2 1;
#X connect 0 0 2 0;
#X connect 1 0 2 1;
#X connect 2 0 3 0;
#X connect 2 0 10 0;
#X connect 2 0 19 0;
#X connect 3 0 5 0;
#X connect 3 0 6 0;
#X connect 4 0 6 1;
#X connect 5 0 18 0;
#X connect 6 0 7 0;
#X connect 8 0 12 0;
#X connect 9 0 8 1;
#X connect 10 0 9 0;
#X connect 10 0 11 1;
#X connect 11 0 12 1;
#X connect 12 0 3 1;
#X connect 14 0 8 0;
#X connect 15 0 11 0;
#X connect 16 0 15 0;
#X connect 17 0 14 0;
