#N canvas 4 22 927 856 10;
#X obj 37 195 delwrite~ predelay 200;
#X obj 37 220 delread~ predelay;
#X obj 85 171 clip 0 200;
#X text 44 150 in;
#X text 83 131 predelay;
#X obj 163 170 clip 0 1;
#X obj 36 287 rpole~;
#X text 157 130 bandwidth;
#X msg 108 310 0.75;
#X obj 91 286 loadbang;
#X msg 108 374 0.75;
#X obj 90 352 loadbang;
#X obj 90 415 loadbang;
#X msg 108 437 0.625;
#X obj 37 521 allpass100ms;
#X obj 91 478 loadbang;
#X msg 109 500 0.625;
#X obj 311 267 loadbang;
#X obj 37 249 *~;
#X obj 179 197 - 1;
#X obj 179 220 * -1;
#X obj 258 436 rpole~;
#X obj 259 412 *~;
#X obj 237 168 clip 0 1;
#X obj 237 194 - 1;
#X obj 237 217 * -1;
#X text 236 129 damping;
#X obj 259 366 delwrite~ dela 200;
#X obj 36 331 allpass100ms;
#X obj 36 395 allpass100ms;
#X obj 36 458 allpass100ms;
#X obj 259 486 allpass100ms2tap;
#X obj 336 438 loadbang;
#X msg 355 464 64.2;
#X obj 229 533 delwrite~ delc 200;
#X obj 502 273 loadbang;
#X obj 437 433 rpole~;
#X obj 438 409 *~;
#X obj 518 437 loadbang;
#X obj 438 363 delwrite~ deld 200;
#X obj 437 247 *~;
#X obj 274 250 *~;
#X obj 425 302 +~;
#X obj 253 303 +~;
#X obj 351 181 clip 0 1;
#X text 340 128 gain;
#X msg 506 303 0.7;
#X obj 438 483 allpass100ms2tap;
#X obj 80 557 delread~ dela 8.9;
#X obj 95 578 delread~ dela 99.8;
#X obj 81 602 +~;
#X obj 91 625 -~;
#X obj 119 626 delread~ delc 67;
#X obj 104 651 +~;
#X obj 118 676 -~;
#X obj 133 651 delread~ deld 66.8;
#X msg 534 461 6.3;
#X obj 135 702 -~;
#X obj 439 541 delwrite~ delf 200;
#X obj 164 704 delread~ delf 35.8;
#X obj 146 729 -~;
#X obj 301 594 +~;
#X obj 311 617 -~;
#X obj 324 643 +~;
#X obj 338 668 -~;
#X obj 355 694 -~;
#X obj 366 721 -~;
#X obj 300 549 delread~ deld 11.8;
#X obj 315 570 delread~ deld 121.7;
#X msg 566 459 41.2;
#X obj 339 618 delread~ delf 89.7;
#X obj 353 643 delread~ dela 70.8;
#X msg 392 463 11.2;
#X obj 384 696 delread~ delc 4.1;
#X msg 327 306 0.7;
#X floatatom 179 247 8 0 0 0 - - -, f 8;
#X floatatom 215 280 5 0 0 0 - - -, f 5;
#X obj 440 334 modallpass100ms;
#X msg 71 500 9.307;
#X msg 70 437 12.73;
#X msg 70 374 3.595;
#X msg 70 310 4.771;
#X msg 468 303 22.58;
#X msg 373 306 0.1;
#X msg 289 306 30.51;
#X msg 463 461 60.48;
#X msg 284 464 89.24;
#X obj 440 383 delread~ deld 149.62;
#X obj 261 386 delread~ dela 141.69;
#X obj 287 208 delread~ delf 125;
#X obj 448 211 delread~ delc 106.28;
#X msg 322 465 0.5;
#X msg 501 461 0.5;
#X msg 552 303 0.07;
#X obj 261 337 modallpass100ms;
#X obj 162 752 *~ 0.125;
#X obj 371 744 *~ 0.125;
#X obj 34 173 *~ 0.5;
#X obj 422 510 *~;
#X obj 236 509 *~;
#X msg 97 109 50;
#X msg 165 116 0.5;
#X msg 240 113 0.5;
#X obj 183 62 loadbang;
#X obj 452 802 dac~ 1 2;
#X msg 345 106 0.96;
#X obj 408 83 snapshot~;
#X obj 480 33 loadbang;
#X obj 480 54 metro 20;
#X obj 375 49 lop~ 10;
#X obj 398 14 adc~ 8;
#X obj 461 143 expr 1 - $f1;
#X obj 59 85 *~ 0.5;
#X obj 397 119 * 1;
#X obj 34 119 hip~ 100;
#X obj 59 52 inlet~;
#X connect 1 0 18 0;
#X connect 2 0 1 0;
#X connect 5 0 18 1;
#X connect 5 0 19 0;
#X connect 6 0 28 0;
#X connect 8 0 28 2;
#X connect 9 0 8 0;
#X connect 9 0 81 0;
#X connect 10 0 29 2;
#X connect 11 0 10 0;
#X connect 11 0 80 0;
#X connect 12 0 13 0;
#X connect 12 0 79 0;
#X connect 13 0 30 2;
#X connect 14 0 42 0;
#X connect 14 0 43 0;
#X connect 15 0 16 0;
#X connect 15 0 78 0;
#X connect 16 0 14 2;
#X connect 17 0 74 0;
#X connect 17 0 84 0;
#X connect 17 0 83 0;
#X connect 18 0 6 0;
#X connect 19 0 20 0;
#X connect 20 0 6 1;
#X connect 20 0 75 0;
#X connect 21 0 31 0;
#X connect 22 0 21 0;
#X connect 23 0 24 0;
#X connect 23 0 21 1;
#X connect 23 0 36 1;
#X connect 24 0 25 0;
#X connect 25 0 22 1;
#X connect 25 0 37 1;
#X connect 25 0 76 0;
#X connect 28 0 29 0;
#X connect 29 0 30 0;
#X connect 30 0 14 0;
#X connect 31 0 99 1;
#X connect 31 1 51 1;
#X connect 31 2 65 1;
#X connect 32 0 91 0;
#X connect 32 0 86 0;
#X connect 32 0 33 0;
#X connect 32 0 72 0;
#X connect 33 0 31 3;
#X connect 35 0 46 0;
#X connect 35 0 82 0;
#X connect 35 0 93 0;
#X connect 36 0 47 0;
#X connect 37 0 36 0;
#X connect 38 0 92 0;
#X connect 38 0 85 0;
#X connect 38 0 56 0;
#X connect 38 0 69 0;
#X connect 40 0 42 1;
#X connect 41 0 43 1;
#X connect 42 0 77 0;
#X connect 43 0 94 0;
#X connect 44 0 40 0;
#X connect 44 0 41 0;
#X connect 44 0 98 0;
#X connect 44 0 99 0;
#X connect 46 0 77 2;
#X connect 47 0 98 1;
#X connect 47 1 57 1;
#X connect 47 2 62 1;
#X connect 48 0 50 0;
#X connect 49 0 50 1;
#X connect 50 0 51 0;
#X connect 51 0 53 0;
#X connect 52 0 53 1;
#X connect 53 0 54 0;
#X connect 54 0 57 0;
#X connect 55 0 54 1;
#X connect 56 0 47 3;
#X connect 57 0 60 0;
#X connect 59 0 60 1;
#X connect 60 0 95 0;
#X connect 61 0 62 0;
#X connect 62 0 63 0;
#X connect 63 0 64 0;
#X connect 64 0 65 0;
#X connect 65 0 66 0;
#X connect 66 0 96 0;
#X connect 67 0 61 0;
#X connect 68 0 61 1;
#X connect 69 0 47 4;
#X connect 70 0 63 1;
#X connect 71 0 64 1;
#X connect 72 0 31 4;
#X connect 73 0 66 1;
#X connect 74 0 94 2;
#X connect 77 0 39 0;
#X connect 78 0 14 1;
#X connect 79 0 30 1;
#X connect 80 0 29 1;
#X connect 81 0 28 1;
#X connect 82 0 77 1;
#X connect 83 0 94 3;
#X connect 84 0 94 1;
#X connect 85 0 47 1;
#X connect 86 0 31 1;
#X connect 87 0 37 0;
#X connect 88 0 22 0;
#X connect 89 0 41 1;
#X connect 90 0 40 1;
#X connect 91 0 31 2;
#X connect 92 0 47 2;
#X connect 93 0 77 3;
#X connect 94 0 27 0;
#X connect 95 0 104 0;
#X connect 96 0 104 1;
#X connect 97 0 0 0;
#X connect 98 0 58 0;
#X connect 99 0 34 0;
#X connect 100 0 2 0;
#X connect 101 0 5 0;
#X connect 102 0 23 0;
#X connect 103 0 100 0;
#X connect 103 0 101 0;
#X connect 103 0 102 0;
#X connect 103 0 105 0;
#X connect 105 0 44 0;
#X connect 106 0 113 0;
#X connect 107 0 108 0;
#X connect 108 0 106 0;
#X connect 109 0 106 0;
#X connect 110 0 109 0;
#X connect 111 0 44 0;
#X connect 112 0 114 0;
#X connect 113 0 111 0;
#X connect 114 0 97 0;
#X connect 115 0 112 0;
