#N canvas 217 114 512 629 10;
#X obj 139 19 inlet pitch;
#X obj 57 350 *~;
#X obj 60 218 vline~;
#X obj 224 489 outlet~;
#X obj 256 93 mtof;
#X obj 276 164 /;
#X msg 252 140 1000;
#X obj 254 115 t b f;
#X obj 56 376 delwrite~ \$0-delay 200;
#X obj 34 17 inlet trigger;
#X obj 244 52 t f;
#X obj 241 323 line~;
#X obj 250 297 pack 0 2;
#X obj 78 249 noise~;
#X obj 68 278 bp~ 3000 7;
#X obj 92 306 bp~ 5107 10;
#X msg 37 158 1 1 \, 0 20 5;
#X obj 219 376 vd~ \$0-delay 12;
#X obj 224 458 *~ 0.9999;
#X text 291 461 decay;
#X text 287 433 cutt-off;
#X obj 292 16 inlet cutoff;
#X obj 392 23 inlet decay;
#X obj 224 431 lop~ 2000;
#X obj 37 508 block~ 128;
#X connect 0 0 10 0;
#X connect 1 0 8 0;
#X connect 2 0 1 0;
#X connect 4 0 7 0;
#X connect 5 0 12 0;
#X connect 6 0 5 0;
#X connect 7 0 6 0;
#X connect 7 1 5 1;
#X connect 9 0 16 0;
#X connect 10 0 4 0;
#X connect 11 0 17 0;
#X connect 12 0 11 0;
#X connect 13 0 14 0;
#X connect 13 0 15 0;
#X connect 14 0 1 1;
#X connect 15 0 1 1;
#X connect 16 0 2 0;
#X connect 17 0 23 0;
#X connect 18 0 3 0;
#X connect 18 0 8 0;
#X connect 21 0 23 1;
#X connect 22 0 18 1;
#X connect 23 0 18 0;
