#N canvas 0 23 1680 923 12;
#N canvas 586 178 318 511 C_lead 0;
#X text 175 271 Pitches values;
#X msg 77 314 40;
#X obj 79 43 inlet;
#X obj 131 399 outlet pitch;
#X obj 33 400 outlet hit;
#X msg 39 315 36;
#X msg 109 313 43;
#X obj 62 271 sel 0 1 2;
#X text 182 288 C maj;
#X obj 87 114 f;
#X obj 150 114 + 1;
#X obj 87 144 mod 3;
#X obj 129 191 t b i;
#X connect 1 0 3 0;
#X connect 2 0 9 0;
#X connect 5 0 3 0;
#X connect 6 0 3 0;
#X connect 7 0 5 0;
#X connect 7 1 1 0;
#X connect 7 2 6 0;
#X connect 9 0 10 0;
#X connect 9 0 11 0;
#X connect 10 0 9 1;
#X connect 11 0 12 0;
#X connect 12 0 4 0;
#X connect 12 1 7 0;
#X restore 1506 128 pd C_lead;
#N canvas 549 196 345 449 C+_lead 0;
#X obj 67 29 inlet;
#X text 193 276 Pitches values;
#X obj 129 191 t b f;
#X obj 123 403 outlet pitch;
#X obj 42 400 outlet hit;
#X obj 80 276 sel 0 1 2;
#X msg 57 320 36;
#X msg 95 319 40;
#X msg 127 318 44;
#X text 200 293 C+;
#X obj 87 114 f;
#X obj 150 114 + 1;
#X obj 87 144 mod 3;
#X connect 0 0 10 0;
#X connect 2 0 4 0;
#X connect 2 1 5 0;
#X connect 5 0 6 0;
#X connect 5 1 7 0;
#X connect 5 2 8 0;
#X connect 6 0 3 0;
#X connect 7 0 3 0;
#X connect 8 0 3 0;
#X connect 10 0 11 0;
#X connect 10 0 12 0;
#X connect 11 0 10 1;
#X connect 12 0 2 0;
#X restore 1598 130 pd C+_lead;
#N canvas 939 188 345 449 Cma7_lead 0;
#X obj 67 29 inlet;
#X text 193 276 Pitches values;
#X obj 129 191 t b f;
#X obj 123 403 outlet pitch;
#X obj 42 400 outlet hit;
#X msg 95 319 40;
#X msg 57 320 36;
#X text 200 293 C Maj7;
#X obj 80 276 sel 0 1 2;
#X msg 141 321 47;
#X obj 87 114 f;
#X obj 150 114 + 1;
#X obj 87 144 mod 3;
#X connect 0 0 10 0;
#X connect 2 0 4 0;
#X connect 2 1 8 0;
#X connect 5 0 3 0;
#X connect 6 0 3 0;
#X connect 8 0 6 0;
#X connect 8 1 5 0;
#X connect 8 2 9 0;
#X connect 9 0 3 0;
#X connect 10 0 11 0;
#X connect 10 0 12 0;
#X connect 11 0 10 1;
#X connect 12 0 2 0;
#X restore 2051 133 pd Cma7_lead;
#N canvas 939 188 345 449 AbminMaj/C_lead 0;
#X obj 67 29 inlet;
#X text 193 276 Pitches values;
#X obj 129 191 t b f;
#X obj 123 403 outlet pitch;
#X obj 42 400 outlet hit;
#X obj 80 276 sel 0 1 2;
#X text 200 293 Ab min-Maj / C;
#X msg 57 320 36;
#X msg 95 319 44;
#X msg 127 318 47;
#X obj 87 114 f;
#X obj 150 114 + 1;
#X obj 87 144 mod 3;
#X connect 0 0 10 0;
#X connect 2 0 4 0;
#X connect 2 1 5 0;
#X connect 5 0 7 0;
#X connect 5 1 8 0;
#X connect 5 2 9 0;
#X connect 7 0 3 0;
#X connect 8 0 3 0;
#X connect 9 0 3 0;
#X connect 10 0 11 0;
#X connect 10 0 12 0;
#X connect 11 0 10 1;
#X connect 12 0 2 0;
#X restore 2274 136 pd AbminMaj/C_lead;
#N canvas 939 188 345 449 E_lead 0;
#X obj 67 29 inlet;
#X text 193 276 Pitches values;
#X obj 129 191 t b f;
#X obj 123 403 outlet pitch;
#X obj 42 400 outlet hit;
#X obj 80 276 sel 0 1 2;
#X msg 57 320 40;
#X msg 95 319 44;
#X msg 127 318 47;
#X text 200 293 E (maj);
#X obj 87 114 f;
#X obj 150 114 + 1;
#X obj 87 144 mod 3;
#X connect 0 0 10 0;
#X connect 2 0 4 0;
#X connect 2 1 5 0;
#X connect 5 0 6 0;
#X connect 5 1 7 0;
#X connect 5 2 8 0;
#X connect 6 0 3 0;
#X connect 7 0 3 0;
#X connect 8 0 3 0;
#X connect 10 0 11 0;
#X connect 10 0 12 0;
#X connect 11 0 10 1;
#X connect 12 0 2 0;
#X restore 2415 136 pd E_lead;
#N canvas 939 188 345 449 E/B_lead 0;
#X obj 67 29 inlet;
#X text 193 276 Pitches values;
#X obj 129 191 t b f;
#X obj 123 403 outlet pitch;
#X obj 42 400 outlet hit;
#X msg 57 320 35;
#X msg 95 319 40;
#X msg 127 318 44;
#X text 200 293 E maj;
#X obj 80 276 sel 0 1 2;
#X obj 87 114 f;
#X obj 150 114 + 1;
#X obj 87 144 mod 3;
#X connect 0 0 10 0;
#X connect 2 0 4 0;
#X connect 2 1 9 0;
#X connect 5 0 3 0;
#X connect 6 0 3 0;
#X connect 7 0 3 0;
#X connect 9 0 5 0;
#X connect 9 1 6 0;
#X connect 9 2 7 0;
#X connect 10 0 11 0;
#X connect 10 0 12 0;
#X connect 11 0 10 1;
#X connect 12 0 2 0;
#X restore 1704 132 pd E/B_lead;
#N canvas 939 188 345 449 G#+/B_lead 0;
#X obj 67 29 inlet;
#X text 193 276 Pitches values;
#X obj 129 191 t b f;
#X obj 123 403 outlet pitch;
#X obj 42 400 outlet hit;
#X obj 80 276 sel 0 1 2;
#X msg 57 320 35;
#X msg 95 319 40;
#X msg 127 318 44;
#X text 200 293 G# aug/B;
#X obj 87 114 f;
#X obj 150 114 + 1;
#X obj 87 144 mod 3;
#X connect 0 0 10 0;
#X connect 2 0 4 0;
#X connect 2 1 5 0;
#X connect 5 0 6 0;
#X connect 5 1 7 0;
#X connect 5 2 8 0;
#X connect 6 0 3 0;
#X connect 7 0 3 0;
#X connect 8 0 3 0;
#X connect 10 0 11 0;
#X connect 10 0 12 0;
#X connect 11 0 10 1;
#X connect 12 0 2 0;
#X restore 1818 132 pd G#+/B_lead;
#N canvas 939 188 345 449 E-/B_lead 0;
#X obj 67 29 inlet;
#X text 193 276 Pitches values;
#X obj 129 191 t b f;
#X obj 123 403 outlet pitch;
#X obj 42 400 outlet hit;
#X msg 57 320 35;
#X msg 95 319 40;
#X obj 80 276 sel 0 1 2;
#X msg 127 318 43;
#X text 200 293 E min/B;
#X obj 87 114 f;
#X obj 150 114 + 1;
#X obj 87 144 mod 3;
#X connect 0 0 10 0;
#X connect 2 0 4 0;
#X connect 2 1 7 0;
#X connect 5 0 3 0;
#X connect 6 0 3 0;
#X connect 7 0 5 0;
#X connect 7 1 6 0;
#X connect 7 2 8 0;
#X connect 8 0 3 0;
#X connect 10 0 11 0;
#X connect 10 0 12 0;
#X connect 11 0 10 1;
#X connect 12 0 2 0;
#X restore 1938 133 pd E-/B_lead;
#N canvas 939 188 345 449 E-_lead 0;
#X obj 67 29 inlet;
#X text 193 276 Pitches values;
#X obj 129 191 t b f;
#X obj 123 403 outlet pitch;
#X obj 42 400 outlet hit;
#X obj 80 276 sel 0 1 2;
#X msg 57 320 40;
#X msg 127 318 47;
#X msg 95 319 43;
#X text 200 293 E min;
#X obj 87 114 f;
#X obj 150 114 + 1;
#X obj 87 144 mod 3;
#X connect 0 0 10 0;
#X connect 2 0 4 0;
#X connect 2 1 5 0;
#X connect 5 0 6 0;
#X connect 5 1 8 0;
#X connect 5 2 7 0;
#X connect 6 0 3 0;
#X connect 7 0 3 0;
#X connect 8 0 3 0;
#X connect 10 0 11 0;
#X connect 10 0 12 0;
#X connect 11 0 10 1;
#X connect 12 0 2 0;
#X restore 2504 138 pd E-_lead;
#N canvas 939 188 345 449 C/E_lead 0;
#X obj 67 29 inlet;
#X text 193 276 Pitches values;
#X obj 129 191 t b f;
#X obj 123 403 outlet pitch;
#X obj 42 400 outlet hit;
#X obj 80 276 sel 0 1 2;
#X msg 57 320 40;
#X msg 95 319 43;
#X msg 127 318 48;
#X text 200 293 C/E;
#X obj 87 114 f;
#X obj 150 114 + 1;
#X obj 87 144 mod 3;
#X connect 0 0 10 0;
#X connect 2 0 4 0;
#X connect 2 1 5 0;
#X connect 5 0 6 0;
#X connect 5 1 7 0;
#X connect 5 2 8 0;
#X connect 6 0 3 0;
#X connect 7 0 3 0;
#X connect 8 0 3 0;
#X connect 10 0 11 0;
#X connect 10 0 12 0;
#X connect 11 0 10 1;
#X connect 12 0 2 0;
#X restore 2600 138 pd C/E_lead;
#N canvas 939 188 345 449 C+/E_lead 0;
#X obj 67 29 inlet;
#X text 193 276 Pitches values;
#X obj 129 191 t b f;
#X obj 123 403 outlet pitch;
#X obj 42 400 outlet hit;
#X obj 80 276 sel 0 1 2;
#X msg 57 320 40;
#X msg 127 318 48;
#X msg 95 319 44;
#X text 200 293 C+/E;
#X obj 87 114 f;
#X obj 150 114 + 1;
#X obj 87 144 mod 3;
#X connect 0 0 10 0;
#X connect 2 0 4 0;
#X connect 2 1 5 0;
#X connect 5 0 6 0;
#X connect 5 1 8 0;
#X connect 5 2 7 0;
#X connect 6 0 3 0;
#X connect 7 0 3 0;
#X connect 8 0 3 0;
#X connect 10 0 11 0;
#X connect 10 0 12 0;
#X connect 11 0 10 1;
#X connect 12 0 2 0;
#X restore 2706 139 pd C+/E_lead;
#N canvas 939 188 345 449 Cma7/E_lead 0;
#X obj 67 29 inlet;
#X text 193 276 Pitches values;
#X obj 129 191 t b f;
#X obj 123 403 outlet pitch;
#X obj 42 400 outlet hit;
#X obj 80 276 sel 0 1 2;
#X msg 57 320 40;
#X msg 127 318 48;
#X msg 95 319 47;
#X text 200 293 Cma7/E;
#X obj 87 114 f;
#X obj 150 114 + 1;
#X obj 87 144 mod 3;
#X connect 0 0 10 0;
#X connect 2 0 4 0;
#X connect 2 1 5 0;
#X connect 5 0 6 0;
#X connect 5 1 8 0;
#X connect 5 2 7 0;
#X connect 6 0 3 0;
#X connect 7 0 3 0;
#X connect 8 0 3 0;
#X connect 10 0 11 0;
#X connect 10 0 12 0;
#X connect 11 0 10 1;
#X connect 12 0 2 0;
#X restore 2820 136 pd Cma7/E_lead;
#N canvas 939 188 345 449 G6_lead 0;
#X obj 67 29 inlet;
#X text 193 276 Pitches values;
#X obj 129 191 t b f;
#X obj 123 403 outlet pitch;
#X obj 42 400 outlet hit;
#X obj 80 276 sel 0 1 2;
#X msg 95 319 47;
#X text 200 293 G6;
#X msg 57 320 43;
#X msg 127 318 52;
#X obj 87 114 f;
#X obj 150 114 + 1;
#X obj 87 144 mod 3;
#X connect 0 0 10 0;
#X connect 2 0 4 0;
#X connect 2 1 5 0;
#X connect 5 0 8 0;
#X connect 5 1 6 0;
#X connect 5 2 9 0;
#X connect 6 0 3 0;
#X connect 8 0 3 0;
#X connect 9 0 3 0;
#X connect 10 0 11 0;
#X connect 10 0 12 0;
#X connect 11 0 10 1;
#X connect 12 0 2 0;
#X restore 2947 138 pd G6_lead;
#N canvas 939 188 345 449 G#-(b13)_lead 0;
#X obj 67 29 inlet;
#X text 193 276 Pitches values;
#X obj 129 191 t b f;
#X obj 123 403 outlet pitch;
#X obj 42 400 outlet hit;
#X obj 80 276 sel 0 1 2;
#X msg 95 319 47;
#X msg 127 318 52;
#X msg 57 320 44;
#X text 200 293 G#-(b13);
#X obj 87 114 f;
#X obj 150 114 + 1;
#X obj 87 144 mod 3;
#X connect 0 0 10 0;
#X connect 2 0 4 0;
#X connect 2 1 5 0;
#X connect 5 0 8 0;
#X connect 5 1 6 0;
#X connect 5 2 7 0;
#X connect 6 0 3 0;
#X connect 7 0 3 0;
#X connect 8 0 3 0;
#X connect 10 0 11 0;
#X connect 10 0 12 0;
#X connect 11 0 10 1;
#X connect 12 0 2 0;
#X restore 3045 138 pd G#-(b13)_lead;
#N canvas 939 188 345 449 C+/G#_lead 0;
#X obj 67 29 inlet;
#X text 193 276 Pitches values;
#X obj 129 191 t b f;
#X obj 123 403 outlet pitch;
#X obj 42 400 outlet hit;
#X obj 80 276 sel 0 1 2;
#X msg 127 318 52;
#X msg 57 320 44;
#X msg 95 319 48;
#X text 200 293 C+/G#;
#X obj 87 114 f;
#X obj 150 114 + 1;
#X obj 87 144 mod 3;
#X connect 0 0 10 0;
#X connect 2 0 4 0;
#X connect 2 1 5 0;
#X connect 5 0 7 0;
#X connect 5 1 8 0;
#X connect 5 2 6 0;
#X connect 6 0 3 0;
#X connect 7 0 3 0;
#X connect 8 0 3 0;
#X connect 10 0 11 0;
#X connect 10 0 12 0;
#X connect 11 0 10 1;
#X connect 12 0 2 0;
#X restore 3171 137 pd C+/G#_lead;
#N canvas 939 188 345 449 G13/C_lead 0;
#X obj 67 29 inlet;
#X text 193 276 Pitches values;
#X obj 129 191 t b f;
#X obj 123 403 outlet pitch;
#X obj 42 400 outlet hit;
#X msg 57 320 36;
#X obj 80 276 sel 0 1 2;
#X msg 141 321 47;
#X msg 95 319 43;
#X text 200 293 G13/C;
#X obj 87 114 f;
#X obj 150 114 + 1;
#X obj 87 144 mod 3;
#X connect 0 0 10 0;
#X connect 2 0 4 0;
#X connect 2 1 6 0;
#X connect 5 0 3 0;
#X connect 6 0 5 0;
#X connect 6 1 8 0;
#X connect 6 2 7 0;
#X connect 7 0 3 0;
#X connect 8 0 3 0;
#X connect 10 0 11 0;
#X connect 10 0 12 0;
#X connect 11 0 10 1;
#X connect 12 0 2 0;
#X restore 2154 133 pd G13/C_lead;
#X obj 1524 159 i;
#X obj 1600 163 i;
#X obj 1704 166 i;
#X obj 1819 165 i;
#X obj 1940 163 i;
#X obj 2056 168 i;
#X obj 2156 169 i;
#X obj 2275 171 i;
#X obj 2420 168 i;
#X obj 2511 170 i;
#X obj 2606 167 i;
#X obj 2716 170 i, f 2;
#X obj 2830 168 i;
#X obj 2956 172 i;
#X obj 3054 173 i;
#X obj 3182 176 i;
#X obj 700 45 f;
#X obj 763 45 + 1;
#X obj 700 75 mod 16;
#X obj 698 107 hradio 15 1 0 16 empty empty empty 0 -8 0 10 -262144
-1 -1 11;
#X obj 702 14 bng 15 250 50 0 empty empty empty 17 7 0 10 -262144 -1
-1;
#X obj 35 63 inlet main_bang;
#X obj 698 138 sel 0 1 2 3 4 5 6 7 8 9 10 11 12 13 14 15, f 66;
#X obj 2527 318 mtof;
#X obj 2529 364 nbx 5 14 -1e+37 1e+37 0 0 empty empty empty 0 -8 0
10 -262144 -1 -1 8.1758 256;
#X obj 129 214 f;
#X obj 192 214 + 1;
#X obj 131 183 bng 15 250 50 0 empty empty empty 17 7 0 10 -262144
-1 -1;
#X obj 125 284 sel 0 1 2;
#X obj 129 244 mod 4;
#X obj 559 56 spigot;
#X obj 589 36 tgl 15 0 empty empty empty 17 7 0 10 -262144 -1 -1 0
1;
#X obj 288 43 bng 15 250 50 0 empty empty empty 17 7 0 10 -262144 -1
-1;
#X obj 553 22 bng 15 250 50 0 empty empty empty 17 7 0 10 -262144 -1
-1;
#X obj 159 20 tgl 15 0 empty empty empty 17 7 0 10 -262144 -1 -1 0
1;
#X obj 164 65 metro 1000;
#X obj 402 106 spigot;
#X obj 433 86 tgl 15 0 empty empty empty 17 7 0 10 -262144 -1 -1 0
1;
#X obj 397 72 bng 15 250 50 0 empty empty empty 17 7 0 10 -262144 -1
-1;
#X obj 211 273 nbx 5 14 -1e+37 1e+37 0 0 empty empty empty 0 -8 0 10
-262144 -1 -1 0 256;
#X obj 800 217 nbx 5 14 -1e+37 1e+37 0 0 empty empty empty 0 -8 0 10
-262144 -1 -1 0 256;
#X obj 276 411 expr if($i1 == 0 && $i2 != 3 \, 1 \, 0);
#X obj 140 118 bng 15 250 50 0 empty empty empty 17 7 0 10 -262144
-1 -1;
#X obj 347 300 t b b;
#X obj 326 372 i;
#X obj 452 377 i;
#X obj 454 456 == 0;
#X obj 514 332 expr if ($i1 == 3 \, 0 \, $i1);
#X obj 906 454 f;
#X obj 969 454 + 1;
#X obj 867 301 bng 15 250 50 0 empty empty empty 17 7 0 10 -262144
-1 -1;
#X obj 906 484 mod 3;
#X obj 904 519 hradio 15 1 0 3 empty empty empty 0 -8 0 10 -262144
-1 -1 0;
#X obj 596 578 spigot;
#X obj 627 558 tgl 15 0 empty empty empty 17 7 0 10 -262144 -1 -1 0
1;
#X obj 591 544 bng 15 250 50 0 empty empty empty 17 7 0 10 -262144
-1 -1;
#X obj 673 580 spigot;
#X obj 704 560 tgl 15 0 empty empty empty 17 7 0 10 -262144 -1 -1 0
1;
#X obj 668 546 bng 15 250 50 0 empty empty empty 17 7 0 10 -262144
-1 -1;
#X obj 629 494 == 0;
#X obj 699 491 == 1;
#X obj 863 624 f;
#X obj 921 633 + 1;
#X obj 863 654 mod 16;
#X obj 861 686 hradio 15 1 0 16 empty empty empty 0 -8 0 10 -262144
-1 -1 1;
#X obj 923 178 tgl 15 0 empty empty empty 17 7 0 10 -262144 -1 -1 0
1;
#X obj 928 223 metro 1000;
#X obj 864 591 spigot;
#X obj 2294 660 del 20;
#X obj 2295 697 pluck2~, f 19;
#X obj 2283 747 bp~ 3000 3;
#X obj 2273 770 dac~ 1 2;
#N canvas 0 23 1277 429 seq-routine 0;
#X obj 306 84 sel 0 1 2 3 4 5 6 7 8 9 10 11 12 13 14 15, f 75;
#X msg 15 276 1;
#X msg 49 276 0;
#X msg 89 278 1;
#X msg 123 278 0;
#X msg 157 278 1;
#X msg 191 278 0;
#X msg 231 280 1;
#X msg 265 280 0;
#X msg 306 281 1;
#X msg 340 281 0;
#X msg 380 283 1;
#X msg 414 283 0;
#X msg 448 283 1;
#X msg 482 283 0;
#X msg 522 285 1;
#X msg 556 285 0;
#X msg 598 284 1;
#X msg 632 284 0;
#X msg 672 286 1;
#X msg 706 286 0;
#X msg 740 286 1;
#X msg 774 286 0;
#X msg 814 288 1;
#X msg 848 288 0;
#X msg 889 289 1;
#X msg 923 289 0;
#X msg 963 291 1;
#X msg 997 291 0;
#X msg 1031 291 1;
#X msg 1065 291 0;
#X msg 1105 293 1;
#X msg 1139 293 0;
#X obj 306 13 inlet seq;
#X obj 10 329 outlet s1;
#X obj 82 330 outlet s2;
#X obj 153 331 outlet s3;
#X obj 225 332 outlet s4;
#X obj 296 334 outlet s5;
#X obj 368 335 outlet s6;
#X obj 439 336 outlet s7;
#X obj 511 337 outlet s8;
#X obj 586 337 outlet s9;
#X obj 658 338 outlet s10;
#X obj 735 339 outlet s11;
#X obj 821 340 outlet s12;
#X obj 898 342 outlet s13;
#X obj 979 343 outlet s14;
#X obj 1061 343 outlet s15;
#X obj 1143 342 outlet s16;
#X obj 1133 37 inlet reset;
#X connect 0 0 1 0;
#X connect 0 0 32 0;
#X connect 0 1 2 0;
#X connect 0 1 3 0;
#X connect 0 2 4 0;
#X connect 0 2 5 0;
#X connect 0 3 6 0;
#X connect 0 3 7 0;
#X connect 0 4 8 0;
#X connect 0 4 9 0;
#X connect 0 5 10 0;
#X connect 0 5 11 0;
#X connect 0 6 12 0;
#X connect 0 6 13 0;
#X connect 0 7 14 0;
#X connect 0 7 15 0;
#X connect 0 8 16 0;
#X connect 0 8 17 0;
#X connect 0 9 18 0;
#X connect 0 9 19 0;
#X connect 0 10 20 0;
#X connect 0 10 21 0;
#X connect 0 11 22 0;
#X connect 0 11 23 0;
#X connect 0 12 24 0;
#X connect 0 12 25 0;
#X connect 0 13 26 0;
#X connect 0 13 27 0;
#X connect 0 14 28 0;
#X connect 0 14 29 0;
#X connect 0 15 30 0;
#X connect 0 15 31 0;
#X connect 1 0 34 0;
#X connect 2 0 34 0;
#X connect 3 0 35 0;
#X connect 4 0 35 0;
#X connect 5 0 36 0;
#X connect 6 0 36 0;
#X connect 7 0 37 0;
#X connect 8 0 37 0;
#X connect 9 0 38 0;
#X connect 10 0 38 0;
#X connect 11 0 39 0;
#X connect 12 0 39 0;
#X connect 13 0 40 0;
#X connect 14 0 40 0;
#X connect 15 0 41 0;
#X connect 16 0 41 0;
#X connect 17 0 42 0;
#X connect 18 0 42 0;
#X connect 19 0 43 0;
#X connect 20 0 43 0;
#X connect 21 0 44 0;
#X connect 22 0 44 0;
#X connect 23 0 45 0;
#X connect 24 0 45 0;
#X connect 25 0 46 0;
#X connect 26 0 46 0;
#X connect 27 0 47 0;
#X connect 28 0 47 0;
#X connect 29 0 48 0;
#X connect 30 0 48 0;
#X connect 31 0 49 0;
#X connect 32 0 49 0;
#X connect 33 0 0 0;
#X connect 50 0 2 0;
#X connect 50 0 4 0;
#X connect 50 0 6 0;
#X connect 50 0 8 0;
#X connect 50 0 10 0;
#X connect 50 0 12 0;
#X connect 50 0 14 0;
#X connect 50 0 16 0;
#X connect 50 0 18 0;
#X connect 50 0 20 0;
#X connect 50 0 22 0;
#X connect 50 0 24 0;
#X connect 50 0 26 0;
#X connect 50 0 28 0;
#X connect 50 0 30 0;
#X connect 50 0 32 0;
#X restore 860 715 pd seq-routine;
#X f 46;
#X obj 860 755 tgl 15 0 empty empty empty 17 7 0 10 -262144 -1 -1 0
1;
#X obj 882 755 tgl 15 0 empty empty empty 17 7 0 10 -262144 -1 -1 1
1;
#X obj 903 754 tgl 15 0 empty empty empty 17 7 0 10 -262144 -1 -1 0
1;
#X obj 925 755 tgl 15 0 empty empty empty 17 7 0 10 -262144 -1 -1 0
1;
#X obj 947 756 tgl 15 0 empty empty empty 17 7 0 10 -262144 -1 -1 0
1;
#X obj 968 756 tgl 15 0 empty empty empty 17 7 0 10 -262144 -1 -1 0
1;
#X obj 990 756 tgl 15 0 empty empty empty 17 7 0 10 -262144 -1 -1 0
1;
#X obj 1011 757 tgl 15 0 empty empty empty 17 7 0 10 -262144 -1 -1
0 1;
#X obj 1032 759 tgl 15 0 empty empty empty 17 7 0 10 -262144 -1 -1
0 1;
#X obj 1052 759 tgl 15 0 empty empty empty 17 7 0 10 -262144 -1 -1
0 1;
#X obj 1073 761 tgl 15 0 empty empty empty 17 7 0 10 -262144 -1 -1
0 1;
#X obj 1092 760 tgl 15 0 empty empty empty 17 7 0 10 -262144 -1 -1
0 1;
#X obj 1115 761 tgl 15 0 empty empty empty 17 7 0 10 -262144 -1 -1
0 1;
#X obj 1136 761 tgl 15 0 empty empty empty 17 7 0 10 -262144 -1 -1
0 1;
#X obj 1155 762 tgl 15 0 empty empty empty 17 7 0 10 -262144 -1 -1
0 1;
#X obj 1176 764 tgl 15 0 empty empty empty 17 7 0 10 -262144 -1 -1
0 1;
#X obj 903 557 == 0;
#X obj 1081 309 bng 15 250 50 0 empty empty empty 17 7 0 10 -262144
-1 -1;
#X obj 1081 342 t b b 0 0 0;
#X text 1104 311 reset all;
#X obj 1083 279 loadbang;
#X obj 1510 79 spigot;
#N canvas 16 78 1644 934 chord_prog 0;
#N canvas 586 178 318 511 C_lead 0;
#X text 175 271 Pitches values;
#X msg 77 314 40;
#X obj 79 43 inlet;
#X obj 131 399 outlet pitch;
#X obj 33 400 outlet hit;
#X msg 39 315 36;
#X msg 109 313 43;
#X obj 62 271 sel 0 1 2;
#X text 182 288 C maj;
#X obj 87 114 f;
#X obj 150 114 + 1;
#X obj 87 144 mod 3;
#X obj 129 191 t b i;
#X connect 1 0 3 0;
#X connect 2 0 9 0;
#X connect 5 0 3 0;
#X connect 6 0 3 0;
#X connect 7 0 5 0;
#X connect 7 1 1 0;
#X connect 7 2 6 0;
#X connect 9 0 10 0;
#X connect 9 0 11 0;
#X connect 10 0 9 1;
#X connect 11 0 12 0;
#X connect 12 0 4 0;
#X connect 12 1 7 0;
#X restore 10 599 pd C_lead;
#N canvas 549 196 345 449 C+_lead 0;
#X obj 67 29 inlet;
#X text 193 276 Pitches values;
#X obj 129 191 t b f;
#X obj 123 403 outlet pitch;
#X obj 42 400 outlet hit;
#X obj 80 276 sel 0 1 2;
#X msg 57 320 36;
#X msg 95 319 40;
#X msg 127 318 44;
#X text 200 293 C+;
#X obj 87 114 f;
#X obj 150 114 + 1;
#X obj 87 144 mod 3;
#X connect 0 0 10 0;
#X connect 2 0 4 0;
#X connect 2 1 5 0;
#X connect 5 0 6 0;
#X connect 5 1 7 0;
#X connect 5 2 8 0;
#X connect 6 0 3 0;
#X connect 7 0 3 0;
#X connect 8 0 3 0;
#X connect 10 0 11 0;
#X connect 10 0 12 0;
#X connect 11 0 10 1;
#X connect 12 0 2 0;
#X restore 102 601 pd C+_lead;
#N canvas 939 188 345 449 Cma7_lead 0;
#X obj 67 29 inlet;
#X text 193 276 Pitches values;
#X obj 129 191 t b f;
#X obj 123 403 outlet pitch;
#X obj 42 400 outlet hit;
#X msg 95 319 40;
#X msg 57 320 36;
#X text 200 293 C Maj7;
#X obj 80 276 sel 0 1 2;
#X msg 141 321 47;
#X obj 87 114 f;
#X obj 150 114 + 1;
#X obj 87 144 mod 3;
#X connect 0 0 10 0;
#X connect 2 0 4 0;
#X connect 2 1 8 0;
#X connect 5 0 3 0;
#X connect 6 0 3 0;
#X connect 8 0 6 0;
#X connect 8 1 5 0;
#X connect 8 2 9 0;
#X connect 9 0 3 0;
#X connect 10 0 11 0;
#X connect 10 0 12 0;
#X connect 11 0 10 1;
#X connect 12 0 2 0;
#X restore 555 604 pd Cma7_lead;
#N canvas 939 188 345 449 AbminMaj/C_lead 0;
#X obj 67 29 inlet;
#X text 193 276 Pitches values;
#X obj 129 191 t b f;
#X obj 123 403 outlet pitch;
#X obj 42 400 outlet hit;
#X obj 80 276 sel 0 1 2;
#X text 200 293 Ab min-Maj / C;
#X msg 57 320 36;
#X msg 95 319 44;
#X msg 127 318 47;
#X obj 87 114 f;
#X obj 150 114 + 1;
#X obj 87 144 mod 3;
#X connect 0 0 10 0;
#X connect 2 0 4 0;
#X connect 2 1 5 0;
#X connect 5 0 7 0;
#X connect 5 1 8 0;
#X connect 5 2 9 0;
#X connect 7 0 3 0;
#X connect 8 0 3 0;
#X connect 9 0 3 0;
#X connect 10 0 11 0;
#X connect 10 0 12 0;
#X connect 11 0 10 1;
#X connect 12 0 2 0;
#X restore 778 607 pd AbminMaj/C_lead;
#N canvas 939 188 345 449 E_lead 0;
#X obj 67 29 inlet;
#X text 193 276 Pitches values;
#X obj 129 191 t b f;
#X obj 123 403 outlet pitch;
#X obj 42 400 outlet hit;
#X obj 80 276 sel 0 1 2;
#X msg 57 320 40;
#X msg 95 319 44;
#X msg 127 318 47;
#X text 200 293 E (maj);
#X obj 87 114 f;
#X obj 150 114 + 1;
#X obj 87 144 mod 3;
#X connect 0 0 10 0;
#X connect 2 0 4 0;
#X connect 2 1 5 0;
#X connect 5 0 6 0;
#X connect 5 1 7 0;
#X connect 5 2 8 0;
#X connect 6 0 3 0;
#X connect 7 0 3 0;
#X connect 8 0 3 0;
#X connect 10 0 11 0;
#X connect 10 0 12 0;
#X connect 11 0 10 1;
#X connect 12 0 2 0;
#X restore 919 607 pd E_lead;
#N canvas 939 188 345 449 E/B_lead 0;
#X obj 67 29 inlet;
#X text 193 276 Pitches values;
#X obj 129 191 t b f;
#X obj 123 403 outlet pitch;
#X obj 42 400 outlet hit;
#X msg 57 320 35;
#X msg 95 319 40;
#X msg 127 318 44;
#X text 200 293 E maj;
#X obj 80 276 sel 0 1 2;
#X obj 87 114 f;
#X obj 150 114 + 1;
#X obj 87 144 mod 3;
#X connect 0 0 10 0;
#X connect 2 0 4 0;
#X connect 2 1 9 0;
#X connect 5 0 3 0;
#X connect 6 0 3 0;
#X connect 7 0 3 0;
#X connect 9 0 5 0;
#X connect 9 1 6 0;
#X connect 9 2 7 0;
#X connect 10 0 11 0;
#X connect 10 0 12 0;
#X connect 11 0 10 1;
#X connect 12 0 2 0;
#X restore 208 603 pd E/B_lead;
#N canvas 939 188 345 449 G#+/B_lead 0;
#X obj 67 29 inlet;
#X text 193 276 Pitches values;
#X obj 129 191 t b f;
#X obj 123 403 outlet pitch;
#X obj 42 400 outlet hit;
#X obj 80 276 sel 0 1 2;
#X msg 57 320 35;
#X msg 95 319 40;
#X msg 127 318 44;
#X text 200 293 G# aug/B;
#X obj 87 114 f;
#X obj 150 114 + 1;
#X obj 87 144 mod 3;
#X connect 0 0 10 0;
#X connect 2 0 4 0;
#X connect 2 1 5 0;
#X connect 5 0 6 0;
#X connect 5 1 7 0;
#X connect 5 2 8 0;
#X connect 6 0 3 0;
#X connect 7 0 3 0;
#X connect 8 0 3 0;
#X connect 10 0 11 0;
#X connect 10 0 12 0;
#X connect 11 0 10 1;
#X connect 12 0 2 0;
#X restore 322 603 pd G#+/B_lead;
#N canvas 939 188 345 449 E-/B_lead 0;
#X obj 67 29 inlet;
#X text 193 276 Pitches values;
#X obj 129 191 t b f;
#X obj 123 403 outlet pitch;
#X obj 42 400 outlet hit;
#X msg 57 320 35;
#X msg 95 319 40;
#X obj 80 276 sel 0 1 2;
#X msg 127 318 43;
#X text 200 293 E min/B;
#X obj 87 114 f;
#X obj 150 114 + 1;
#X obj 87 144 mod 3;
#X connect 0 0 10 0;
#X connect 2 0 4 0;
#X connect 2 1 7 0;
#X connect 5 0 3 0;
#X connect 6 0 3 0;
#X connect 7 0 5 0;
#X connect 7 1 6 0;
#X connect 7 2 8 0;
#X connect 8 0 3 0;
#X connect 10 0 11 0;
#X connect 10 0 12 0;
#X connect 11 0 10 1;
#X connect 12 0 2 0;
#X restore 442 604 pd E-/B_lead;
#N canvas 939 188 345 449 E-_lead 0;
#X obj 67 29 inlet;
#X text 193 276 Pitches values;
#X obj 129 191 t b f;
#X obj 123 403 outlet pitch;
#X obj 42 400 outlet hit;
#X obj 80 276 sel 0 1 2;
#X msg 57 320 40;
#X msg 127 318 47;
#X msg 95 319 43;
#X text 200 293 E min;
#X obj 87 114 f;
#X obj 150 114 + 1;
#X obj 87 144 mod 3;
#X connect 0 0 10 0;
#X connect 2 0 4 0;
#X connect 2 1 5 0;
#X connect 5 0 6 0;
#X connect 5 1 8 0;
#X connect 5 2 7 0;
#X connect 6 0 3 0;
#X connect 7 0 3 0;
#X connect 8 0 3 0;
#X connect 10 0 11 0;
#X connect 10 0 12 0;
#X connect 11 0 10 1;
#X connect 12 0 2 0;
#X restore 1008 609 pd E-_lead;
#N canvas 939 188 345 449 C/E_lead 0;
#X obj 67 29 inlet;
#X text 193 276 Pitches values;
#X obj 129 191 t b f;
#X obj 123 403 outlet pitch;
#X obj 42 400 outlet hit;
#X obj 80 276 sel 0 1 2;
#X msg 57 320 40;
#X msg 95 319 43;
#X msg 127 318 48;
#X text 200 293 C/E;
#X obj 87 114 f;
#X obj 150 114 + 1;
#X obj 87 144 mod 3;
#X connect 0 0 10 0;
#X connect 2 0 4 0;
#X connect 2 1 5 0;
#X connect 5 0 6 0;
#X connect 5 1 7 0;
#X connect 5 2 8 0;
#X connect 6 0 3 0;
#X connect 7 0 3 0;
#X connect 8 0 3 0;
#X connect 10 0 11 0;
#X connect 10 0 12 0;
#X connect 11 0 10 1;
#X connect 12 0 2 0;
#X restore 1104 609 pd C/E_lead;
#N canvas 939 188 345 449 C+/E_lead 0;
#X obj 67 29 inlet;
#X text 193 276 Pitches values;
#X obj 129 191 t b f;
#X obj 123 403 outlet pitch;
#X obj 42 400 outlet hit;
#X obj 80 276 sel 0 1 2;
#X msg 57 320 40;
#X msg 127 318 48;
#X msg 95 319 44;
#X text 200 293 C+/E;
#X obj 87 114 f;
#X obj 150 114 + 1;
#X obj 87 144 mod 3;
#X connect 0 0 10 0;
#X connect 2 0 4 0;
#X connect 2 1 5 0;
#X connect 5 0 6 0;
#X connect 5 1 8 0;
#X connect 5 2 7 0;
#X connect 6 0 3 0;
#X connect 7 0 3 0;
#X connect 8 0 3 0;
#X connect 10 0 11 0;
#X connect 10 0 12 0;
#X connect 11 0 10 1;
#X connect 12 0 2 0;
#X restore 1210 610 pd C+/E_lead;
#N canvas 939 188 345 449 Cma7/E_lead 0;
#X obj 67 29 inlet;
#X text 193 276 Pitches values;
#X obj 129 191 t b f;
#X obj 123 403 outlet pitch;
#X obj 42 400 outlet hit;
#X obj 80 276 sel 0 1 2;
#X msg 57 320 40;
#X msg 127 318 48;
#X msg 95 319 47;
#X text 200 293 Cma7/E;
#X obj 87 114 f;
#X obj 150 114 + 1;
#X obj 87 144 mod 3;
#X connect 0 0 10 0;
#X connect 2 0 4 0;
#X connect 2 1 5 0;
#X connect 5 0 6 0;
#X connect 5 1 8 0;
#X connect 5 2 7 0;
#X connect 6 0 3 0;
#X connect 7 0 3 0;
#X connect 8 0 3 0;
#X connect 10 0 11 0;
#X connect 10 0 12 0;
#X connect 11 0 10 1;
#X connect 12 0 2 0;
#X restore 1324 607 pd Cma7/E_lead;
#N canvas 939 188 345 449 G6_lead 0;
#X obj 67 29 inlet;
#X text 193 276 Pitches values;
#X obj 129 191 t b f;
#X obj 123 403 outlet pitch;
#X obj 42 400 outlet hit;
#X obj 80 276 sel 0 1 2;
#X msg 95 319 47;
#X text 200 293 G6;
#X msg 57 320 43;
#X msg 127 318 52;
#X obj 87 114 f;
#X obj 150 114 + 1;
#X obj 87 144 mod 3;
#X connect 0 0 10 0;
#X connect 2 0 4 0;
#X connect 2 1 5 0;
#X connect 5 0 8 0;
#X connect 5 1 6 0;
#X connect 5 2 9 0;
#X connect 6 0 3 0;
#X connect 8 0 3 0;
#X connect 9 0 3 0;
#X connect 10 0 11 0;
#X connect 10 0 12 0;
#X connect 11 0 10 1;
#X connect 12 0 2 0;
#X restore 1451 609 pd G6_lead;
#N canvas 939 188 345 449 G#-(b13)_lead 0;
#X obj 67 29 inlet;
#X text 193 276 Pitches values;
#X obj 129 191 t b f;
#X obj 123 403 outlet pitch;
#X obj 42 400 outlet hit;
#X obj 80 276 sel 0 1 2;
#X msg 95 319 47;
#X msg 127 318 52;
#X msg 57 320 44;
#X text 200 293 G#-(b13);
#X obj 87 114 f;
#X obj 150 114 + 1;
#X obj 87 144 mod 3;
#X connect 0 0 10 0;
#X connect 2 0 4 0;
#X connect 2 1 5 0;
#X connect 5 0 8 0;
#X connect 5 1 6 0;
#X connect 5 2 7 0;
#X connect 6 0 3 0;
#X connect 7 0 3 0;
#X connect 8 0 3 0;
#X connect 10 0 11 0;
#X connect 10 0 12 0;
#X connect 11 0 10 1;
#X connect 12 0 2 0;
#X restore 1549 609 pd G#-(b13)_lead;
#N canvas 939 188 345 449 C+/G#_lead 0;
#X obj 67 29 inlet;
#X text 193 276 Pitches values;
#X obj 129 191 t b f;
#X obj 123 403 outlet pitch;
#X obj 42 400 outlet hit;
#X obj 80 276 sel 0 1 2;
#X msg 127 318 52;
#X msg 57 320 44;
#X msg 95 319 48;
#X text 200 293 C+/G#;
#X obj 87 114 f;
#X obj 150 114 + 1;
#X obj 87 144 mod 3;
#X connect 0 0 10 0;
#X connect 2 0 4 0;
#X connect 2 1 5 0;
#X connect 5 0 7 0;
#X connect 5 1 8 0;
#X connect 5 2 6 0;
#X connect 6 0 3 0;
#X connect 7 0 3 0;
#X connect 8 0 3 0;
#X connect 10 0 11 0;
#X connect 10 0 12 0;
#X connect 11 0 10 1;
#X connect 12 0 2 0;
#X restore 1675 608 pd C+/G#_lead;
#N canvas 939 188 345 449 G13/C_lead 0;
#X obj 67 29 inlet;
#X text 193 276 Pitches values;
#X obj 129 191 t b f;
#X obj 123 403 outlet pitch;
#X obj 42 400 outlet hit;
#X msg 57 320 36;
#X obj 80 276 sel 0 1 2;
#X msg 141 321 47;
#X msg 95 319 43;
#X text 200 293 G13/C;
#X obj 87 114 f;
#X obj 150 114 + 1;
#X obj 87 144 mod 3;
#X connect 0 0 10 0;
#X connect 2 0 4 0;
#X connect 2 1 6 0;
#X connect 5 0 3 0;
#X connect 6 0 5 0;
#X connect 6 1 8 0;
#X connect 6 2 7 0;
#X connect 7 0 3 0;
#X connect 8 0 3 0;
#X connect 10 0 11 0;
#X connect 10 0 12 0;
#X connect 11 0 10 1;
#X connect 12 0 2 0;
#X restore 658 604 pd G13/C_lead;
#X obj 1031 789 mtof;
#X obj 795 862 outlet hit;
#X obj 1033 856 outlet fq;
#X obj 804 812 del 20;
#X obj 596 36 inlet mainBang;
#X obj 10 563 spigot;
#X obj 102 564 spigot;
#X obj 210 563 spigot;
#X obj 321 563 spigot;
#X obj 438 564 spigot;
#X obj 559 565 spigot;
#X obj 667 564 spigot;
#X obj 778 564 spigot;
#X obj 926 569 spigot;
#X obj 1018 570 spigot;
#X obj 1103 571 spigot;
#X obj 1210 569 spigot;
#X obj 1328 564 spigot;
#X obj 1448 563 spigot;
#X obj 1548 559 spigot;
#X obj 1674 556 spigot;
#X obj 149 130 f;
#X obj 186 129 + 1;
#X obj 149 156 mod 3;
#X obj 148 182 hradio 15 1 0 3 empty empty empty 0 -8 0 10 -262144
-1 -1 0;
#X obj 18 238 f;
#X obj 76 247 + 1;
#X obj 18 268 mod 16;
#X obj 16 300 hradio 15 1 0 16 empty empty empty 0 -8 0 10 -262144
-1 -1 0;
#X obj 19 205 spigot;
#N canvas 0 23 1277 429 seq-routine 0;
#X obj 306 84 sel 0 1 2 3 4 5 6 7 8 9 10 11 12 13 14 15, f 75;
#X msg 15 276 1;
#X msg 49 276 0;
#X msg 89 278 1;
#X msg 123 278 0;
#X msg 157 278 1;
#X msg 191 278 0;
#X msg 231 280 1;
#X msg 265 280 0;
#X msg 306 281 1;
#X msg 340 281 0;
#X msg 380 283 1;
#X msg 414 283 0;
#X msg 448 283 1;
#X msg 482 283 0;
#X msg 522 285 1;
#X msg 556 285 0;
#X msg 598 284 1;
#X msg 632 284 0;
#X msg 672 286 1;
#X msg 706 286 0;
#X msg 740 286 1;
#X msg 774 286 0;
#X msg 814 288 1;
#X msg 848 288 0;
#X msg 889 289 1;
#X msg 923 289 0;
#X msg 963 291 1;
#X msg 997 291 0;
#X msg 1031 291 1;
#X msg 1065 291 0;
#X msg 1105 293 1;
#X msg 1139 293 0;
#X obj 306 13 inlet seq;
#X obj 10 329 outlet s1;
#X obj 82 330 outlet s2;
#X obj 153 331 outlet s3;
#X obj 225 332 outlet s4;
#X obj 296 334 outlet s5;
#X obj 368 335 outlet s6;
#X obj 439 336 outlet s7;
#X obj 511 337 outlet s8;
#X obj 586 337 outlet s9;
#X obj 658 338 outlet s10;
#X obj 735 339 outlet s11;
#X obj 821 340 outlet s12;
#X obj 898 342 outlet s13;
#X obj 979 343 outlet s14;
#X obj 1061 343 outlet s15;
#X obj 1143 342 outlet s16;
#X obj 1133 37 inlet reset;
#X connect 0 0 1 0;
#X connect 0 0 32 0;
#X connect 0 1 2 0;
#X connect 0 1 3 0;
#X connect 0 2 4 0;
#X connect 0 2 5 0;
#X connect 0 3 6 0;
#X connect 0 3 7 0;
#X connect 0 4 8 0;
#X connect 0 4 9 0;
#X connect 0 5 10 0;
#X connect 0 5 11 0;
#X connect 0 6 12 0;
#X connect 0 6 13 0;
#X connect 0 7 14 0;
#X connect 0 7 15 0;
#X connect 0 8 16 0;
#X connect 0 8 17 0;
#X connect 0 9 18 0;
#X connect 0 9 19 0;
#X connect 0 10 20 0;
#X connect 0 10 21 0;
#X connect 0 11 22 0;
#X connect 0 11 23 0;
#X connect 0 12 24 0;
#X connect 0 12 25 0;
#X connect 0 13 26 0;
#X connect 0 13 27 0;
#X connect 0 14 28 0;
#X connect 0 14 29 0;
#X connect 0 15 30 0;
#X connect 0 15 31 0;
#X connect 1 0 34 0;
#X connect 2 0 34 0;
#X connect 3 0 35 0;
#X connect 4 0 35 0;
#X connect 5 0 36 0;
#X connect 6 0 36 0;
#X connect 7 0 37 0;
#X connect 8 0 37 0;
#X connect 9 0 38 0;
#X connect 10 0 38 0;
#X connect 11 0 39 0;
#X connect 12 0 39 0;
#X connect 13 0 40 0;
#X connect 14 0 40 0;
#X connect 15 0 41 0;
#X connect 16 0 41 0;
#X connect 17 0 42 0;
#X connect 18 0 42 0;
#X connect 19 0 43 0;
#X connect 20 0 43 0;
#X connect 21 0 44 0;
#X connect 22 0 44 0;
#X connect 23 0 45 0;
#X connect 24 0 45 0;
#X connect 25 0 46 0;
#X connect 26 0 46 0;
#X connect 27 0 47 0;
#X connect 28 0 47 0;
#X connect 29 0 48 0;
#X connect 30 0 48 0;
#X connect 31 0 49 0;
#X connect 32 0 49 0;
#X connect 33 0 0 0;
#X connect 50 0 2 0;
#X connect 50 0 4 0;
#X connect 50 0 6 0;
#X connect 50 0 8 0;
#X connect 50 0 10 0;
#X connect 50 0 12 0;
#X connect 50 0 14 0;
#X connect 50 0 16 0;
#X connect 50 0 18 0;
#X connect 50 0 20 0;
#X connect 50 0 22 0;
#X connect 50 0 24 0;
#X connect 50 0 26 0;
#X connect 50 0 28 0;
#X connect 50 0 30 0;
#X connect 50 0 32 0;
#X restore 15 329 pd seq-routine;
#X f 46;
#X obj 49 536 tgl 15 0 empty empty empty 17 7 0 10 -262144 -1 -1 1
1;
#X obj 138 531 tgl 15 0 empty empty empty 17 7 0 10 -262144 -1 -1 0
1;
#X obj 247 534 tgl 15 0 empty empty empty 17 7 0 10 -262144 -1 -1 0
1;
#X obj 360 542 tgl 15 0 empty empty empty 17 7 0 10 -262144 -1 -1 0
1;
#X obj 477 536 tgl 15 0 empty empty empty 17 7 0 10 -262144 -1 -1 0
1;
#X obj 596 536 tgl 15 0 empty empty empty 17 7 0 10 -262144 -1 -1 0
1;
#X obj 705 538 tgl 15 0 empty empty empty 17 7 0 10 -262144 -1 -1 0
1;
#X obj 817 537 tgl 15 0 empty empty empty 17 7 0 10 -262144 -1 -1 0
1;
#X obj 965 544 tgl 15 0 empty empty empty 17 7 0 10 -262144 -1 -1 0
1;
#X obj 1058 546 tgl 15 0 empty empty empty 17 7 0 10 -262144 -1 -1
0 1;
#X obj 1143 542 tgl 15 0 empty empty empty 17 7 0 10 -262144 -1 -1
0 1;
#X obj 1248 542 tgl 15 0 empty empty empty 17 7 0 10 -262144 -1 -1
0 1;
#X obj 1367 536 tgl 15 0 empty empty empty 17 7 0 10 -262144 -1 -1
0 1;
#X obj 1485 541 tgl 15 0 empty empty empty 17 7 0 10 -262144 -1 -1
0 1;
#X obj 1584 531 tgl 15 0 empty empty empty 17 7 0 10 -262144 -1 -1
0 1;
#X obj 1712 520 tgl 15 0 empty empty empty 17 7 0 10 -262144 -1 -1
0 1;
#X obj 147 200 == 0;
#X obj 14 7 bng 15 250 50 0 empty empty empty 17 7 0 10 -262144 -1
-1;
#X obj 14 40 t b b 0 0 0;
#X text 37 9 reset all;
#X obj 132 15 loadbang;
#X connect 0 0 19 0;
#X connect 0 1 16 0;
#X connect 1 0 19 0;
#X connect 1 1 16 0;
#X connect 2 0 19 0;
#X connect 2 1 16 0;
#X connect 3 0 19 0;
#X connect 3 1 16 0;
#X connect 4 0 19 0;
#X connect 4 1 16 0;
#X connect 5 0 19 0;
#X connect 5 1 16 0;
#X connect 6 0 19 0;
#X connect 6 1 16 0;
#X connect 7 0 19 0;
#X connect 7 1 16 0;
#X connect 8 0 19 0;
#X connect 8 1 16 0;
#X connect 9 0 19 0;
#X connect 9 1 16 0;
#X connect 10 0 19 0;
#X connect 10 1 16 0;
#X connect 11 0 19 0;
#X connect 11 1 16 0;
#X connect 12 0 19 0;
#X connect 12 1 16 0;
#X connect 13 0 19 0;
#X connect 13 1 16 0;
#X connect 14 0 19 0;
#X connect 14 1 16 0;
#X connect 15 0 19 0;
#X connect 15 1 16 0;
#X connect 16 0 18 0;
#X connect 19 0 17 0;
#X connect 20 0 37 0;
#X connect 20 0 45 0;
#X connect 20 0 21 0;
#X connect 20 0 22 0;
#X connect 20 0 23 0;
#X connect 20 0 24 0;
#X connect 20 0 25 0;
#X connect 20 0 26 0;
#X connect 20 0 27 0;
#X connect 20 0 28 0;
#X connect 20 0 29 0;
#X connect 20 0 30 0;
#X connect 20 0 31 0;
#X connect 20 0 32 0;
#X connect 20 0 33 0;
#X connect 20 0 34 0;
#X connect 20 0 35 0;
#X connect 20 0 36 0;
#X connect 21 0 0 0;
#X connect 22 0 1 0;
#X connect 23 0 5 0;
#X connect 24 0 6 0;
#X connect 25 0 7 0;
#X connect 26 0 2 0;
#X connect 27 0 15 0;
#X connect 28 0 3 0;
#X connect 29 0 4 0;
#X connect 30 0 8 0;
#X connect 31 0 9 0;
#X connect 32 0 10 0;
#X connect 33 0 11 0;
#X connect 34 0 12 0;
#X connect 35 0 13 0;
#X connect 36 0 14 0;
#X connect 37 0 38 0;
#X connect 37 0 39 0;
#X connect 38 0 37 1;
#X connect 39 0 40 0;
#X connect 39 0 63 0;
#X connect 41 0 42 0;
#X connect 41 0 43 0;
#X connect 42 0 41 1;
#X connect 43 0 44 0;
#X connect 44 0 46 0;
#X connect 45 0 41 0;
#X connect 46 0 47 0;
#X connect 46 1 48 0;
#X connect 46 2 49 0;
#X connect 46 3 50 0;
#X connect 46 4 51 0;
#X connect 46 5 52 0;
#X connect 46 6 53 0;
#X connect 46 7 54 0;
#X connect 46 8 55 0;
#X connect 46 9 56 0;
#X connect 46 10 57 0;
#X connect 46 11 58 0;
#X connect 46 12 59 0;
#X connect 46 13 60 0;
#X connect 46 14 61 0;
#X connect 46 15 62 0;
#X connect 47 0 21 1;
#X connect 48 0 22 1;
#X connect 49 0 23 1;
#X connect 50 0 24 1;
#X connect 51 0 25 1;
#X connect 52 0 26 1;
#X connect 53 0 27 1;
#X connect 54 0 28 1;
#X connect 55 0 29 1;
#X connect 56 0 30 1;
#X connect 57 0 31 1;
#X connect 58 0 32 1;
#X connect 59 0 33 1;
#X connect 60 0 34 1;
#X connect 61 0 35 1;
#X connect 62 0 36 1;
#X connect 63 0 45 1;
#X connect 64 0 65 0;
#X connect 65 0 46 1;
#X connect 65 0 41 0;
#X connect 65 1 37 0;
#X connect 65 2 44 0;
#X connect 65 3 41 1;
#X connect 65 4 37 1;
#X connect 67 0 64 0;
#X restore 1477 582 pd chord_prog;
#X connect 0 1 16 1;
#X connect 1 1 17 1;
#X connect 2 1 21 1;
#X connect 3 1 23 1;
#X connect 4 1 24 1;
#X connect 5 1 18 1;
#X connect 6 1 19 1;
#X connect 7 1 20 1;
#X connect 8 1 25 1;
#X connect 9 1 26 1;
#X connect 10 1 27 1;
#X connect 11 1 28 1;
#X connect 12 1 29 1;
#X connect 13 1 30 1;
#X connect 14 1 31 1;
#X connect 15 1 22 1;
#X connect 16 0 39 0;
#X connect 17 0 39 0;
#X connect 18 0 39 0;
#X connect 19 0 39 0;
#X connect 20 0 39 0;
#X connect 21 0 39 0;
#X connect 22 0 39 0;
#X connect 23 0 39 0;
#X connect 24 0 39 0;
#X connect 25 0 39 0;
#X connect 26 0 39 0;
#X connect 27 0 39 0;
#X connect 28 0 39 0;
#X connect 29 0 39 0;
#X connect 30 0 39 0;
#X connect 31 0 39 0;
#X connect 32 0 33 0;
#X connect 32 0 34 0;
#X connect 33 0 32 1;
#X connect 34 0 35 0;
#X connect 34 0 60 1;
#X connect 34 0 63 0;
#X connect 35 0 38 0;
#X connect 35 0 56 0;
#X connect 36 0 32 0;
#X connect 39 0 40 0;
#X connect 41 0 42 0;
#X connect 41 0 45 0;
#X connect 42 0 41 1;
#X connect 43 0 41 0;
#X connect 45 0 44 0;
#X connect 45 0 55 0;
#X connect 45 0 61 1;
#X connect 46 0 32 0;
#X connect 47 0 46 1;
#X connect 49 0 46 0;
#X connect 50 0 51 0;
#X connect 51 0 48 0;
#X connect 51 0 49 0;
#X connect 51 0 54 0;
#X connect 51 0 58 0;
#X connect 52 0 43 0;
#X connect 53 0 52 1;
#X connect 54 0 52 0;
#X connect 57 0 53 0;
#X connect 57 0 62 0;
#X connect 58 0 59 0;
#X connect 59 0 60 0;
#X connect 59 1 61 0;
#X connect 60 0 57 0;
#X connect 61 0 57 1;
#X connect 62 0 47 0;
#X connect 63 0 61 1;
#X connect 64 0 65 0;
#X connect 64 0 67 0;
#X connect 65 0 64 1;
#X connect 66 0 64 0;
#X connect 66 0 83 0;
#X connect 67 0 68 0;
#X connect 67 0 105 0;
#X connect 70 0 69 1;
#X connect 71 0 69 0;
#X connect 73 0 72 1;
#X connect 74 0 72 0;
#X connect 75 0 70 0;
#X connect 76 0 73 0;
#X connect 77 0 78 0;
#X connect 77 0 79 0;
#X connect 78 0 77 1;
#X connect 79 0 80 0;
#X connect 80 0 88 0;
#X connect 81 0 82 0;
#X connect 82 0 66 0;
#X connect 83 0 77 0;
#X connect 84 0 85 0;
#X connect 86 0 87 0;
#X connect 86 0 87 1;
#X connect 88 0 89 0;
#X connect 88 1 90 0;
#X connect 88 2 91 0;
#X connect 88 3 92 0;
#X connect 88 4 93 0;
#X connect 88 5 94 0;
#X connect 88 6 95 0;
#X connect 88 7 96 0;
#X connect 88 8 97 0;
#X connect 88 9 98 0;
#X connect 88 10 99 0;
#X connect 88 11 100 0;
#X connect 88 12 101 0;
#X connect 88 13 102 0;
#X connect 88 14 103 0;
#X connect 88 15 104 0;
#X connect 105 0 83 1;
#X connect 106 0 107 0;
#X connect 107 0 88 1;
#X connect 107 0 77 0;
#X connect 107 1 64 0;
#X connect 107 2 80 0;
#X connect 107 3 77 1;
#X connect 107 4 64 1;
#X connect 109 0 106 0;
