#N canvas 0 23 1421 788 10;
#X obj 54 229 osc~, f 6;
#X obj 238 228 osc~, f 6;
#X obj 54 306 *~;
#X obj 238 297 *~;
#X obj 113 288 vline~;
#X obj 53 178 *~ 1;
#X obj 301 280 vline~;
#X obj 237 178 *~ 2;
#X obj 408 228 osc~, f 6;
#X obj 408 297 *~;
#X obj 471 280 vline~;
#X obj 577 226 osc~, f 6;
#X obj 577 295 *~;
#X obj 640 278 vline~;
#X obj 747 226 osc~, f 6;
#X obj 747 295 *~;
#X obj 804 274 vline~;
#X obj 407 180 *~ 3;
#X obj 576 175 *~ 4;
#X obj 747 179 *~ 5;
#X obj 924 225 osc~, f 6;
#X obj 924 294 *~;
#X obj 983 277 vline~;
#X obj 924 183 *~ 6;
#X obj 1111 338 vline~;
#X obj 35 415 *~;
#X obj 32 694 +~;
#X obj 55 371 *~ 0.25;
#X obj 1047 306 + 3;
#X floatatom 272 480 5 0 200 0 - - -;
#X obj 143 604 bob~;
#X obj 272 502 / 25;
#X floatatom 155 466 5 0 150 0 - - -;
#X obj 155 488 mtof;
#X obj 156 558 line~;
#X floatatom 155 512 7 0 0 0 - - -;
#X obj 271 530 line~;
#X obj 156 386 loadbang;
#X msg 261 568 clear;
#X msg 155 442 38;
#X msg 272 454 25;
#X obj 1047 350 *~;
#X text 1114 198 LFO;
#X obj 1047 325 osc~ 1;
#X obj 1046 283 random 16;
#X obj 34 438 *~ 0.6;
#X obj 217 456 + 24;
#X obj 85 8 inlet pitch;
#X obj 85 31 s pitch;
#X obj 9 8 inlet hit;
#X obj 9 53 s hit;
#X obj 32 742 outlet~ randadd;
#X floatatom 614 616 5 0 0 0 - - -;
#X floatatom 716 617 5 0 0 0 - - -;
#X floatatom 803 615 5 0 0 0 - - -;
#X floatatom 868 615 5 0 0 0 - - -;
#X obj 614 562 random 100;
#X obj 614 583 / 100;
#X floatatom 718 553 5 0 0 0 - - -;
#X obj 719 575 / 2;
#X text 609 638 amplitude;
#X text 709 637 ramp up;
#X text 871 636 delay;
#X text 786 635 ramp down;
#X obj 861 575 +;
#X obj 716 502 r time;
#X msg 871 539 200;
#X obj 113 195 pack f f f f;
#X obj 164 176 r delay;
#X obj 149 156 r ramps;
#X obj 112 127 random 100;
#X obj 112 148 / 100;
#X floatatom 112 172 5 0 0 0 - - -;
#X msg 113 260 \$1 \$2 \, 0 \$3 \$4;
#X obj 294 196 pack f f f f;
#X obj 345 177 r delay;
#X obj 330 157 r ramps;
#X obj 293 128 random 100;
#X obj 293 149 / 100;
#X floatatom 293 173 5 0 0 0 - - -;
#X obj 462 198 pack f f f f;
#X obj 513 179 r delay;
#X obj 498 159 r ramps;
#X obj 461 130 random 100;
#X obj 461 151 / 100;
#X floatatom 461 175 5 0 0 0 - - -;
#X obj 632 196 pack f f f f;
#X obj 683 177 r delay;
#X obj 668 157 r ramps;
#X obj 631 128 random 100;
#X obj 631 149 / 100;
#X floatatom 631 173 5 0 0 0 - - -;
#X obj 802 196 pack f f f f;
#X obj 853 177 r delay;
#X obj 838 157 r ramps;
#X obj 801 128 random 100;
#X obj 801 149 / 100;
#X floatatom 801 173 5 0 0 0 - - -;
#X obj 982 200 pack f f f f;
#X obj 1033 181 r delay;
#X obj 1018 161 r ramps;
#X obj 981 132 random 100;
#X obj 981 153 / 100;
#X floatatom 981 177 5 0 0 0 - - -;
#X obj 1114 287 pack f f f f;
#X obj 1165 268 r delay;
#X obj 1150 248 r ramps;
#X obj 1113 219 random 100;
#X obj 1113 240 / 100;
#X floatatom 1113 264 5 0 0 0 - - -;
#X msg 301 252 \$1 \$2 \, 0 \$3 \$4;
#X msg 471 252 \$1 \$2 \, 0 \$3 \$4;
#X msg 640 250 \$1 \$2 \, 0 \$3 \$4;
#X msg 804 246 \$1 \$2 \, 0 \$3 \$4;
#X msg 983 249 \$1 \$2 \, 0 \$3 \$4;
#X msg 1111 310 \$1 \$2 \, 0 \$3 \$4;
#X obj 180 9 inlet time;
#X obj 53 151 mtof;
#X obj 53 127 r pitch;
#X obj 237 154 mtof;
#X obj 237 130 r pitch;
#X obj 405 156 mtof;
#X obj 405 132 r pitch;
#X obj 574 149 mtof;
#X obj 574 125 r pitch;
#X obj 746 153 mtof;
#X obj 746 129 r pitch;
#X obj 922 156 mtof;
#X obj 922 132 r pitch;
#X obj 217 422 r pitch;
#X obj 155 420 t b b b;
#X obj 211 505 r delay;
#X obj 156 533 pack 0 1000;
#X obj 1034 76 r hit;
#X floatatom 207 35 5 0 0 0 - - -;
#X obj 180 56 / 2;
#X obj 181 82 s ramps;
#X obj 253 84 s delay;
#X obj 255 54 + 200;
#X obj 263 11 inlet delay;
#X obj 619 529 r hit;
#X obj 26 33 bng 15 250 50 0 empty empty empty 17 7 0 10 -262144 -1
-1;
#X msg 7 108 38;
#X obj 8 79 loadbang;
#X obj 1189 181 loadbang;
#X connect 0 0 2 0;
#X connect 1 0 3 0;
#X connect 2 0 27 0;
#X connect 3 0 27 0;
#X connect 4 0 2 1;
#X connect 5 0 0 0;
#X connect 6 0 3 1;
#X connect 7 0 1 0;
#X connect 8 0 9 0;
#X connect 9 0 27 0;
#X connect 10 0 9 1;
#X connect 11 0 12 0;
#X connect 12 0 27 0;
#X connect 13 0 12 1;
#X connect 14 0 15 0;
#X connect 15 0 27 0;
#X connect 16 0 15 1;
#X connect 17 0 8 0;
#X connect 18 0 11 0;
#X connect 19 0 14 0;
#X connect 20 0 21 0;
#X connect 21 0 27 0;
#X connect 22 0 21 1;
#X connect 23 0 20 0;
#X connect 24 0 41 1;
#X connect 25 0 45 0;
#X connect 26 0 51 0;
#X connect 27 0 25 0;
#X connect 27 0 30 0;
#X connect 28 0 43 0;
#X connect 29 0 31 0;
#X connect 30 0 26 0;
#X connect 31 0 36 0;
#X connect 32 0 33 0;
#X connect 33 0 35 0;
#X connect 34 0 30 1;
#X connect 35 0 132 0;
#X connect 36 0 30 2;
#X connect 37 0 130 0;
#X connect 38 0 30 0;
#X connect 39 0 32 0;
#X connect 40 0 29 0;
#X connect 41 0 25 1;
#X connect 43 0 41 0;
#X connect 44 0 28 0;
#X connect 45 0 26 1;
#X connect 46 0 32 0;
#X connect 47 0 48 0;
#X connect 49 0 50 0;
#X connect 56 0 57 0;
#X connect 57 0 52 0;
#X connect 58 0 59 0;
#X connect 58 0 64 0;
#X connect 59 0 53 0;
#X connect 59 0 54 0;
#X connect 64 0 55 0;
#X connect 65 0 58 0;
#X connect 66 0 64 1;
#X connect 67 0 73 0;
#X connect 68 0 67 3;
#X connect 69 0 67 2;
#X connect 69 0 67 1;
#X connect 70 0 71 0;
#X connect 71 0 72 0;
#X connect 72 0 67 0;
#X connect 73 0 4 0;
#X connect 74 0 110 0;
#X connect 75 0 74 3;
#X connect 76 0 74 2;
#X connect 76 0 74 1;
#X connect 77 0 78 0;
#X connect 78 0 79 0;
#X connect 79 0 74 0;
#X connect 80 0 111 0;
#X connect 81 0 80 3;
#X connect 82 0 80 2;
#X connect 82 0 80 1;
#X connect 83 0 84 0;
#X connect 84 0 85 0;
#X connect 85 0 80 0;
#X connect 86 0 112 0;
#X connect 87 0 86 3;
#X connect 88 0 86 2;
#X connect 88 0 86 1;
#X connect 89 0 90 0;
#X connect 90 0 91 0;
#X connect 91 0 86 0;
#X connect 92 0 113 0;
#X connect 93 0 92 3;
#X connect 94 0 92 2;
#X connect 94 0 92 1;
#X connect 95 0 96 0;
#X connect 96 0 97 0;
#X connect 97 0 92 0;
#X connect 98 0 114 0;
#X connect 99 0 98 3;
#X connect 100 0 98 2;
#X connect 100 0 98 1;
#X connect 101 0 102 0;
#X connect 102 0 103 0;
#X connect 103 0 98 0;
#X connect 104 0 115 0;
#X connect 105 0 104 3;
#X connect 106 0 104 2;
#X connect 106 0 104 1;
#X connect 107 0 108 0;
#X connect 108 0 109 0;
#X connect 109 0 104 0;
#X connect 110 0 6 0;
#X connect 111 0 10 0;
#X connect 112 0 13 0;
#X connect 113 0 16 0;
#X connect 114 0 22 0;
#X connect 115 0 24 0;
#X connect 116 0 134 0;
#X connect 117 0 5 0;
#X connect 118 0 117 0;
#X connect 119 0 7 0;
#X connect 120 0 119 0;
#X connect 121 0 17 0;
#X connect 122 0 121 0;
#X connect 123 0 18 0;
#X connect 124 0 123 0;
#X connect 125 0 19 0;
#X connect 126 0 125 0;
#X connect 127 0 23 0;
#X connect 128 0 127 0;
#X connect 129 0 46 0;
#X connect 130 0 39 0;
#X connect 130 1 40 0;
#X connect 130 2 38 0;
#X connect 131 0 132 1;
#X connect 132 0 34 0;
#X connect 133 0 70 0;
#X connect 133 0 107 0;
#X connect 133 0 101 0;
#X connect 133 0 95 0;
#X connect 133 0 89 0;
#X connect 133 0 83 0;
#X connect 133 0 77 0;
#X connect 133 0 44 0;
#X connect 134 0 135 0;
#X connect 134 0 138 0;
#X connect 135 0 136 0;
#X connect 138 0 137 0;
#X connect 139 0 138 1;
#X connect 140 0 56 0;
#X connect 141 0 50 0;
#X connect 142 0 48 0;
#X connect 143 0 142 0;
#X connect 144 0 44 0;
